[IMG]http://img834.imageshack.us/img834/8677/thismeans.jpg[/IMG]
[code]
This Means War 2012 TS XviD AC3-26K

Imdb: 
http://www.imdb.com/title/tt1596350/

Plot:
Two top CIA operatives wage an epic battle against one another after they discover they are dating the 

same woman.

Sources:
Source: LUM1X Thanks 
audio: SIC THNXS! LittlebirD << XX <3

Notes:
VERY NICE VIDEO FOR CAM :) THNXS NEEDED SOME FILTERS TO MAKE IT LOOK NICE :)
THE AUDIO IS VERY NICE AS WELL FOR A TS!! 
THXNS TO SIC AND LIM1X FOR THIER WORK ALSO ! :)
SO BOTTOM LINE TAKE IT OR LEAVE IT :)

Greetz:
Xtreme 

Encode|FYA|ILLUMANTI|CM8|RX|VISION|HDSCENE|NIGHTMAREZ|xTriLL|DTRG|CRYS|REMIXHD|BIDA|RX|REFILL|INSPiRAL

|SIC|ZOMBIES|HOPE|Anonymous|GooN|FREE
To all the people who have helped me :P you know who you are

Anything to offer email us @: 26k@hushmail.me

Video
ID                                       : 0
Format                                   : MPEG-4 Visual
Format profile                           : Advanced Simple@L5
Format settings, BVOP                    : 2
Format settings, QPel                    : No
Format settings, GMC                     : No warppoints
Format settings, Matrix                  : Default (H.263)
Codec ID                                 : XVID
Codec ID/Hint                            : XviD
Duration                                 : 1h 31mn
Bit rate                                 : 1 498 Kbps
Width                                    : 720 pixels
Height                                   : 266 pixels
Display aspect ratio                     : 2.707
Frame rate                               : 25.000 fps
Color space                              : YUV
Chroma subsampling                       : 4:2:0
Bit depth                                : 8 bits
Scan type                                : Progressive
Compression mode                         : Lossy
Bits/(Pixel*Frame)                       : 0.313
Stream size                              : 980 MiB (86%)
Writing library                          : XviD 64

Audio
ID                                       : 1
Format                                   : AC-3
Format/Info                              : Audio Coding 3
Mode extension                           : CM (complete main)
Codec ID                                 : 2000
Duration                                 : 1h 31mn
Source duration                          : 1h 31mn
Bit rate mode                            : Constant
Bit rate                                 : 224 Kbps
Channel(s)                               : 2 channels
Channel positions                        : Front: L R
Sampling rate                            : 44.1 KHz
Bit depth                                : 16 bits
Compression mode                         : Lossy
Stream size                              : 147 MiB (13%)
Alignment                                : Aligned on interleaves
Interleave, duration                     : 35 ms (0.87 video frame)

[/code]
Screens:
[IMG]http://img21.imageshack.us/img21/7159/vlcsnap2012021922h29m28.png[/IMG]
[IMG]http://img850.imageshack.us/img850/7505/vlcsnap2012021922h29m23.png[/IMG]
[IMG]http://img607.imageshack.us/img607/6025/vlcsnap2012021922h29m35.png[/IMG]
[IMG]http://i.imgur.com/Bv72i.png[/IMG]
[IMG]http://i.imgur.com/L2WXV.png[/IMG]
[IMG]http://i.imgur.com/qdYhC.png[/IMG]

[img]http://img851.imageshack.us/img851/5503/26ks.jpg[/img]
Thank you smallz for banner!